<?xml version="1.0" standalone="no"?><!DOCTYPE svg PUBLIC "-//W3C//DTD SVG 1.1//EN" "http://www.w3.org/Graphics/SVG/1.1/DTD/svg11.dtd"><svg t="1556286127666" class="icon" style="" viewBox="0 0 1024 1024" version="1.1" xmlns="http://www.w3.org/2000/svg" p-id="4550" xmlns:xlink="http://www.w3.org/1999/xlink" width="16" height="16"><defs><style type="text/css">@font-face { font-family: "Roboto Condensed"; src: url("chrome-extension://lienonopcegannlgdkgonpofbhgmclcc/RobotoCondensed-Regular.ttf"); }
</style></defs><path d="M598.357333 60.586667V298.666667a42.666667 42.666667 0 0 0 42.666667 42.666666h245.333333a25.6 25.6 0 0 0 17.92-43.946666L641.706667 42.24a25.6 25.6 0 0 0-43.434667 18.346667zM512 341.930667V85.333333a85.333333 85.333333 0 0 0-85.333333-85.333333H170.666667a85.333333 85.333333 0 0 0-85.333334 85.333333v853.333334a85.333333 85.333333 0 0 0 85.333334 85.333333h682.666666a85.333333 85.333333 0 0 0 85.333334-85.333333V511.658667a85.333333 85.333333 0 0 0-85.674667-85.333334l-255.317333 0.853334a85.333333 85.333333 0 0 1-85.674667-85.333334z" fill="#1296db" p-id="4551"></path></svg>