<?xml version="1.0" standalone="no"?><!DOCTYPE svg PUBLIC "-//W3C//DTD SVG 1.1//EN" "http://www.w3.org/Graphics/SVG/1.1/DTD/svg11.dtd"><svg t="1566524453851" class="icon" viewBox="0 0 1024 1024" version="1.1" xmlns="http://www.w3.org/2000/svg" p-id="5803" xmlns:xlink="http://www.w3.org/1999/xlink" width="200" height="200"><defs><style type="text/css"></style></defs><path d="M375.808 318.976h-1.024c-2.048 13.312-4.096 24.576-7.168 31.744L299.52 541.184h152.064L384 351.232c-4.096-6.144-6.144-16.384-8.192-32.256z m287.744 265.728c-10.24 10.24-15.36 23.552-15.36 40.96 0 15.36 5.12 28.672 16.384 37.888 11.264 10.24 25.6 14.336 43.008 14.336 24.576 0 45.056-9.216 61.952-26.624 16.384-17.408 24.576-39.936 24.576-67.072v-30.72l-76.288 10.24c-25.088 4.608-44.032 11.776-54.272 20.992zM511.488 5.12C229.888 5.12 2.56 231.936 2.56 510.464c0 117.248 40.96 225.28 109.056 310.784C93.184 878.08 61.44 930.304 2.56 951.808c0 56.832 178.688 112.128 333.312 30.72 55.296 20.48 114.176 31.744 176.64 31.744 281.6 0 508.928-226.304 508.928-505.344S793.088 5.12 511.488 5.12z m3.072 713.216l-46.08-125.44H280.064l-43.008 125.44h-65.024l172.544-458.24h62.976l172.544 458.24H514.56z m336.384 0h-56.32v-50.688H793.6c-22.528 38.912-55.296 58.88-98.816 58.88-30.72 0-56.32-8.192-75.264-25.6-18.432-17.408-27.648-39.936-27.648-70.144 0-60.928 35.84-96.768 107.008-107.008l95.744-13.312c0-53.76-21.504-80.384-66.048-80.384-38.912 0-74.24 13.312-105.984 39.936V414.72c31.744-20.48 69.12-30.72 111.104-30.72 78.336 0 117.248 40.96 117.248 124.416v209.92z m0 0" fill="#F56C6C" p-id="5804"></path></svg>