<?xml version="1.0" standalone="no"?><!DOCTYPE svg PUBLIC "-//W3C//DTD SVG 1.1//EN" "http://www.w3.org/Graphics/SVG/1.1/DTD/svg11.dtd"><svg t="1553773308274" class="icon" style="" viewBox="0 0 1024 1024" version="1.1" xmlns="http://www.w3.org/2000/svg" p-id="3193" xmlns:xlink="http://www.w3.org/1999/xlink" width="16" height="16"><defs><style type="text/css">@font-face { font-family: "Roboto Condensed"; src: url("chrome-extension://lienonopcegannlgdkgonpofbhgmclcc/RobotoCondensed-Regular.ttf"); }
</style></defs><path d="M127.763692 332.012308c-63.724308 144.384-35.682462 314.052923 76.721231 426.456615 112.324923 112.324923 281.993846 140.366769 426.456615 76.721231l68.844308 68.923077c-185.737846 99.012923-413.932308 69.001846-561.939692-79.005539C-10.24 677.021538-40.172308 448.827077 58.840615 263.089231l68.923077 68.923077zM759.650462 203.224615c-112.797538-112.876308-283.569231-140.760615-428.504616-75.933538L262.537846 58.604308c186.210462-100.194462 415.350154-70.340923 563.830154 77.981538 148.48 148.558769 178.254769 377.777231 77.981538 563.830154l-68.765538-68.686769c64.827077-144.935385 36.942769-315.628308-75.854769-428.504616zM80.659692 67.190154c14.966154-15.044923 39.384615-15.044923 54.35077 0l759.886769 761.147077c14.966154 14.966154 14.966154 39.384615 0 54.350769l-12.209231 12.209231c-14.966154 15.044923-39.384615 15.044923-54.350769 0L68.292923 133.907692a38.439385 38.439385 0 0 1 0-54.350769l12.209231-12.288z" p-id="3194" fill="#e9706f"></path></svg>