<?xml version="1.0" standalone="no"?><!DOCTYPE svg PUBLIC "-//W3C//DTD SVG 1.1//EN" "http://www.w3.org/Graphics/SVG/1.1/DTD/svg11.dtd"><svg t="1562809921358" class="icon" viewBox="0 0 1024 1024" version="1.1" xmlns="http://www.w3.org/2000/svg" p-id="1342" xmlns:xlink="http://www.w3.org/1999/xlink" width="200" height="200"><defs><style type="text/css"></style></defs><path d="M341.333333 512h85.333334v85.333333H170.666667v-85.333333h85.333333a256 256 0 1 1 256 256v-85.333333a170.666667 170.666667 0 1 0-170.666667-170.666667z m-85.333333 341.333333h384v85.333334H256v-85.333334z m-170.666667-170.666666h341.333334v85.333333H85.333333v-85.333333z m384-640h85.333334v128h-85.333334V42.666667zM149.973333 210.304l60.330667-60.330667L300.8 240.469333 240.469333 300.8 149.973333 210.346667zM723.2 783.530667l60.330667-60.330667 90.496 90.496-60.330667 60.330667-90.496-90.496z m90.496-633.6l60.330667 60.373333-90.496 90.496-60.330667-60.330667 90.496-90.496zM981.333333 469.333333v85.333334h-128v-85.333334h128z" p-id="1343"></path></svg>